<svg xmlns="http://www.w3.org/2000/svg" viewBox="0 0 128 128" width="128" height="128">
  <defs>
    <linearGradient id="bg" x1="0" y1="0" x2="1" y2="1">
      <stop offset="0%" stop-color="#1a1a2e"/>
      <stop offset="100%" stop-color="#16213e"/>
    </linearGradient>
    <linearGradient id="gear1" x1="0" y1="0" x2="1" y2="1">
      <stop offset="0%" stop-color="#fc4c02"/>
      <stop offset="100%" stop-color="#ff7e3a"/>
    </linearGradient>
    <linearGradient id="gear2" x1="0" y1="0" x2="0" y2="1">
      <stop offset="0%" stop-color="#ff9a56"/>
      <stop offset="100%" stop-color="#fc4c02"/>
    </linearGradient>
  </defs>
  <!-- Background -->
  <rect width="128" height="128" rx="20" fill="url(#bg)"/>
  <!-- Outer chainring (50T style) -->
  <g transform="translate(64,62)">
    <!-- Tooth ring -->
    <path d="M0,-44 L3,-47 L5,-44 L8,-47 L10,-44 L13,-46 L15,-43 L18,-45 L20,-42 L22,-44 L24,-40 L27,-42 L28,-38 L31,-39 L32,-35 L35,-36 L35,-32 L38,-32 L38,-28 L41,-27 L40,-23 L43,-22 L41,-18 L44,-16 L42,-13 L44,-10 L42,-7 L44,-4 L41,-2 L43,1 L40,3 L41,6 L38,8 L39,11 L36,12 L36,16 L33,16 L32,20 L29,19 L28,23 L25,21 L23,25 L20,23 L18,26 L15,24 L13,27 L10,24 L8,27 L5,24 L3,27 L0,24 L-3,27 L-5,24 L-8,27 L-10,24 L-13,27 L-15,24 L-18,26 L-20,23 L-23,25 L-25,21 L-28,23 L-29,19 L-32,20 L-33,16 L-36,16 L-36,12 L-39,11 L-38,8 L-41,6 L-40,3 L-43,1 L-41,-2 L-44,-4 L-42,-7 L-44,-10 L-42,-13 L-44,-16 L-41,-18 L-43,-22 L-40,-23 L-41,-27 L-38,-28 L-38,-32 L-35,-32 L-35,-36 L-32,-35 L-31,-39 L-28,-38 L-27,-42 L-24,-40 L-22,-44 L-20,-42 L-18,-45 L-15,-43 L-13,-46 L-10,-44 L-8,-47 L-5,-44 L-3,-47 Z" fill="url(#gear1)" opacity="0.95"/>
    <!-- Inner ring -->
    <circle cx="0" cy="0" r="34" fill="url(#bg)"/>
    <!-- Spider arms (5-bolt) -->
    <g stroke="url(#gear2)" stroke-width="3.5" stroke-linecap="round" fill="none" opacity="0.9">
      <line x1="0" y1="-12" x2="0" y2="-31"/>
      <line x1="11.4" y1="-3.7" x2="29.5" y2="-9.6"/>
      <line x1="7" y1="9.7" x2="18.2" y2="25.1"/>
      <line x1="-7" y1="9.7" x2="-18.2" y2="25.1"/>
      <line x1="-11.4" y1="-3.7" x2="-29.5" y2="-9.6"/>
    </g>
    <!-- Bolt circles -->
    <g fill="#fc4c02" opacity="0.8">
      <circle cx="0" cy="-22" r="3"/>
      <circle cx="20.9" cy="-6.8" r="3"/>
      <circle cx="12.9" cy="17.8" r="3"/>
      <circle cx="-12.9" cy="17.8" r="3"/>
      <circle cx="-20.9" cy="-6.8" r="3"/>
    </g>
    <!-- Centre bore -->
    <circle cx="0" cy="0" r="7" fill="none" stroke="#fc4c02" stroke-width="2" opacity="0.6"/>
    <circle cx="0" cy="0" r="3" fill="#fc4c02" opacity="0.4"/>
  </g>
  <!-- Chain segment hint (bottom right) -->
  <g opacity="0.5">
    <rect x="93" y="78" width="6" height="4" rx="1" fill="#ff9a56" transform="rotate(-35,96,80)"/>
    <rect x="100" y="74" width="6" height="4" rx="1" fill="#ff9a56" transform="rotate(-35,103,76)"/>
    <rect x="107" y="70" width="6" height="4" rx="1" fill="#ff9a56" transform="rotate(-35,110,72)"/>
  </g>
  <!-- "D2" text badge -->
  <g transform="translate(64,62)">
    <text x="0" y="5" text-anchor="middle" font-family="system-ui,-apple-system,sans-serif" font-weight="900" font-size="11" fill="white" letter-spacing="-0.5">Di2va</text>
  </g>
</svg>
